<svg width="20" height="20" viewBox="0 0 20 20" fill="none" xmlns="http://www.w3.org/2000/svg">
<path d="M11.028 0C12.153 0.003 12.724 0.009 13.217 0.023L13.411 0.03C13.635 0.038 13.856 0.0479999 14.123 0.0599999C15.187 0.11 15.913 0.278 16.55 0.525C17.21 0.779 17.766 1.123 18.322 1.678C18.8305 2.1779 19.224 2.78259 19.475 3.45C19.722 4.087 19.89 4.813 19.94 5.878C19.952 6.144 19.962 6.365 19.97 6.59L19.976 6.784C19.991 7.276 19.997 7.847 19.999 8.972L20 9.718V11.028C20.0025 11.7574 19.9948 12.4868 19.977 13.216L19.971 13.41C19.963 13.635 19.953 13.856 19.941 14.122C19.891 15.187 19.721 15.912 19.475 16.55C19.2247 17.2178 18.8312 17.8226 18.322 18.322C17.822 18.8303 17.2173 19.2238 16.55 19.475C15.913 19.722 15.187 19.89 14.123 19.94C13.8857 19.9512 13.6484 19.9612 13.411 19.97L13.217 19.976C12.724 19.99 12.153 19.997 11.028 19.999L10.282 20H8.97303C8.24329 20.0025 7.51355 19.9949 6.78403 19.977L6.59003 19.971C6.35264 19.962 6.1153 19.9517 5.87803 19.94C4.81403 19.89 4.08803 19.722 3.45003 19.475C2.7827 19.2244 2.17824 18.8308 1.67903 18.322C1.17007 17.8223 0.776252 17.2176 0.525028 16.55C0.278028 15.913 0.110028 15.187 0.0600276 14.122C0.0488864 13.8847 0.0388864 13.6474 0.0300277 13.41L0.0250278 13.216C0.00659983 12.4868 -0.0017344 11.7574 2.76843e-05 11.028V8.972C-0.00276328 8.2426 0.00457083 7.5132 0.0220278 6.784L0.0290277 6.59C0.0370277 6.365 0.0470277 6.144 0.0590277 5.878C0.109028 4.813 0.277028 4.088 0.524028 3.45C0.775142 2.7819 1.16975 2.17702 1.68003 1.678C2.17912 1.16947 2.78317 0.775987 3.45003 0.525C4.08803 0.278 4.81303 0.11 5.87803 0.0599999C6.14403 0.0479999 6.36603 0.038 6.59003 0.03L6.78403 0.0239999C7.51322 0.00623271 8.24262 -0.0014347 8.97203 0.000999928L11.028 0ZM10 5C8.67395 5 7.40218 5.52678 6.46449 6.46447C5.52681 7.40215 5.00003 8.67392 5.00003 10C5.00003 11.3261 5.52681 12.5979 6.46449 13.5355C7.40218 14.4732 8.67395 15 10 15C11.3261 15 12.5979 14.4732 13.5356 13.5355C14.4732 12.5979 15 11.3261 15 10C15 8.67392 14.4732 7.40215 13.5356 6.46447C12.5979 5.52678 11.3261 5 10 5ZM10 7C10.394 6.99993 10.7841 7.07747 11.1481 7.22817C11.5121 7.37887 11.8429 7.5998 12.1215 7.87833C12.4001 8.15686 12.6212 8.48754 12.772 8.85149C12.9228 9.21544 13.0005 9.60553 13.0005 9.9995C13.0006 10.3935 12.9231 10.7836 12.7724 11.1476C12.6217 11.5116 12.4007 11.8423 12.1222 12.121C11.8437 12.3996 11.513 12.6206 11.149 12.7714C10.7851 12.9223 10.395 12.9999 10.001 13C9.20538 13 8.44232 12.6839 7.87971 12.1213C7.3171 11.5587 7.00103 10.7956 7.00103 10C7.00103 9.20435 7.3171 8.44129 7.87971 7.87868C8.44232 7.31607 9.20538 7 10.001 7M15.251 3.5C14.9195 3.5 14.6016 3.6317 14.3671 3.86612C14.1327 4.10054 14.001 4.41848 14.001 4.75C14.001 5.08152 14.1327 5.39946 14.3671 5.63388C14.6016 5.8683 14.9195 6 15.251 6C15.5825 6 15.9005 5.8683 16.1349 5.63388C16.3693 5.39946 16.501 5.08152 16.501 4.75C16.501 4.41848 16.3693 4.10054 16.1349 3.86612C15.9005 3.6317 15.5825 3.5 15.251 3.5Z" fill="white"/>
</svg>
